<svg xmlns="http://www.w3.org/2000/svg" viewBox="0 0 320 220" role="img" aria-labelledby="title desc">
  <title id="title">Lycée Watteau Valenciennes</title>
  <desc id="desc">Identité graphique stylisée du lycée pour la barre latérale.</desc>
  <g fill="none" stroke="#fffaf2" stroke-linecap="round" stroke-linejoin="round">
    <g stroke-width="3.2">
      <path d="M64 104V67l42-21 36 19 34-18 73 37v20"/>
      <path d="M75 104V73l30-15 30 16v30M151 104V70l25-13 58 30v17"/>
      <path d="M106 46V25h33v28"/>
      <path d="M104 26h37l-18-12z"/>
      <path d="M195 59V24c0-17 14-31 31-31s31 14 31 31v71" transform="translate(-14 18) scale(.82)"/>
      <path d="M166 45h61M169 35h55"/>
      <path d="M177 21c12-10 27-10 39 0"/>
      <path d="M184 76v28M202 68v36M220 78v26"/>
      <path d="M81 81h12M111 78h12M159 82h12M232 90h9"/>
      <path d="M93 104V88h18v16M181 104V86h18v18"/>
    </g>
    <path d="M49 112h218" stroke-width="2" opacity=".75"/>
  </g>

  <text x="160" y="137" text-anchor="middle" fill="#fffaf2" font-family="Segoe UI, Arial, sans-serif" font-size="14" font-weight="700" letter-spacing="7">LYCÉE</text>
  <text x="160" y="181" text-anchor="middle" fill="#fffaf2" font-family="Georgia, Times New Roman, serif" font-size="43" font-style="italic">Watteau</text>
  <path d="M76 190h168" stroke="#fffaf2" stroke-width="1.5" opacity=".78"/>
  <text x="160" y="208" text-anchor="middle" fill="#fffaf2" font-family="Segoe UI, Arial, sans-serif" font-size="10" font-weight="600" letter-spacing="4">VALENCIENNES</text>
</svg>
